HIERARCHY
ROOT Pelvis
{
	OFFSET 0.000000 0.000000 0.000000
	CHANNELS 6 Xposition Yposition Zposition Xrotation Yrotation Zrotation
	JOINT LeftUpLeg_virtual
	{
		OFFSET 0.000000 0.000000 0.000000
		CHANNELS 3 Xrotation Yrotation Zrotation
		JOINT LeftUpLeg
		{
			OFFSET 8.479700 -4.795502 -0.379100
			CHANNELS 3 Xrotation Yrotation Zrotation
			JOINT LeftLeg
			{
				OFFSET 0.024144 -32.555107 0.112900
				CHANNELS 3 Xrotation Yrotation Zrotation
				JOINT LeftFoot
				{
					OFFSET -0.024144 -32.638630 -3.012600
					CHANNELS 3 Xrotation Yrotation Zrotation
					JOINT LeftToeBase
					{
						OFFSET 0.970200 -13.225400 11.864200
						CHANNELS 3 Xrotation Yrotation Zrotation
						End Site
						{
							OFFSET 0 0 0
						}
					}
				}
			}
		}
	}
	JOINT RightUpLeg_virtual
	{
		OFFSET 0.000000 0.000000 0.000000
		CHANNELS 3 Xrotation Yrotation Zrotation
		JOINT RightUpLeg
		{
			OFFSET -8.479700 -4.795502 -0.379100
			CHANNELS 3 Xrotation Yrotation Zrotation
			JOINT RightLeg
			{
				OFFSET -0.023144 -32.555092 0.112900
				CHANNELS 3 Xrotation Yrotation Zrotation
				JOINT RightFoot
				{
					OFFSET 0.023144 -32.638641 -3.012700
					CHANNELS 3 Xrotation Yrotation Zrotation
					JOINT RightToeBase
					{
						OFFSET -0.970200 -13.225400 11.864200
						CHANNELS 3 Xrotation Yrotation Zrotation
						End Site
						{
							OFFSET 0 0 0
						}
					}
				}
			}
		}
	}
	JOINT Hips_virtual
	{
		OFFSET 0.000000 0.000000 0.000000
		CHANNELS 3 Xrotation Yrotation Zrotation
		JOINT Hips
		{
			OFFSET -0.000000 -0.000000 -0.000000
			CHANNELS 3 Xrotation Yrotation Zrotation
			JOINT Spine
			{
				OFFSET 0.000000 7.722000 1.166200
				CHANNELS 3 Xrotation Yrotation Zrotation
				JOINT Spine1
				{
					OFFSET 0.000000 12.024101 0.248800
					CHANNELS 3 Xrotation Yrotation Zrotation
					JOINT Spine2
					{
						OFFSET 0.000000 11.502998 -0.491200
						CHANNELS 3 Xrotation Yrotation Zrotation
						JOINT Neck_virtual
						{
							OFFSET 0.000000 0.000000 0.000000
							CHANNELS 3 Xrotation Yrotation Zrotation
							JOINT Neck
							{
								OFFSET 0.000000 18.430702 -3.123100
								CHANNELS 3 Xrotation Yrotation Zrotation
								JOINT Head
								{
									OFFSET 0.000000 9.051102 1.034000
									CHANNELS 3 Xrotation Yrotation Zrotation
									End Site
									{
										OFFSET 0 0 0
									}
								}
							}
						}
						JOINT LeftShoulder_virtual
						{
							OFFSET 0.000000 0.000000 0.000000
							CHANNELS 3 Xrotation Yrotation Zrotation
							JOINT LeftShoulder
							{
								OFFSET 6.197800 13.665199 -4.064700
								CHANNELS 3 Xrotation Yrotation Zrotation
								JOINT LeftArm
								{
									OFFSET 7.778100 -0.187103 -1.709300
									CHANNELS 3 Xrotation Yrotation Zrotation
									JOINT LeftForeArm
									{
										OFFSET 22.049376 0.000000 0.000000
										CHANNELS 3 Xrotation Yrotation Zrotation
										JOINT LeftHand
										{
											OFFSET 23.009392 0.000000 0.000000
											CHANNELS 3 Xrotation Yrotation Zrotation
											End Site
											{
												OFFSET 0 0 0
											}
										}
									}
								}
							}
						}
						JOINT RightShoulder_virtual
						{
							OFFSET 0.000000 0.000000 0.000000
							CHANNELS 3 Xrotation Yrotation Zrotation
							JOINT RightShoulder
							{
								OFFSET -6.197800 13.665199 -4.064700
								CHANNELS 3 Xrotation Yrotation Zrotation
								JOINT RightArm
								{
									OFFSET -7.778100 -0.187103 -1.709300
									CHANNELS 3 Xrotation Yrotation Zrotation
									JOINT RightForeArm
									{
										OFFSET -22.049376 0.000000 0.000000
										CHANNELS 3 Xrotation Yrotation Zrotation
										JOINT RightHand
										{
											OFFSET -23.009392 0.000000 0.000000
											CHANNELS 3 Xrotation Yrotation Zrotation
											End Site
											{
												OFFSET 0 0 0
											}
										}
									}
								}
							}
						}
					}
				}
			}
		}
	}
}
MOTION
Frames: 5
Frame Time: 0.03333333
-0.056755 85.913330 -3.890572 0.000000 0.000000 0.000000 -90.676854 -2.027399 1.806315 -4.976980 20.079522 15.685255 3.978100 1.343428 1.567625 23.094007 29.713085 -25.722062 0.000000 0.000000 0.000000 -90.676854 -2.027399 1.806315 -5.927100 -19.911455 -17.563609 1.470912 -5.960297 -4.758673 34.629718 -29.597269 30.431887 0.000000 0.000000 0.000000 -90.676854 -2.027399 1.806315 0.000000 0.000000 0.000000 0.643602 -0.167366 -0.881251 0.768337 0.010520 -0.441587 0.000000 0.000000 0.000000 0.794644 0.003108 -0.423897 -4.679092 4.214176 -8.229254 0.000000 0.000000 0.000000 0.794644 0.003108 -0.423897 0.826369 -6.003514 -3.769292 44.058149 -39.817076 -34.619565 0.000335 -83.309443 0.000352 0.000000 0.000000 0.000000 0.794644 0.003108 -0.423897 0.511989 4.220235 2.974419 -4.382354 2.494186 83.944172 -179.999978 50.597567 179.999978 0.000000 0.000000 0.000000 
-0.053420 85.912964 -3.890076 0.000000 0.000000 0.000000 -90.684517 -2.023026 1.804117 -4.975849 20.081511 15.686848 3.988547 1.348872 1.567664 23.086314 29.711282 -25.716743 0.000000 0.000000 0.000000 -90.684517 -2.023026 1.804117 -5.914495 -19.912402 -17.563939 1.466087 -5.970403 -4.758857 34.631142 -29.596487 30.437468 0.000000 0.000000 0.000000 -90.684517 -2.023026 1.804117 0.000000 0.000000 0.000000 0.643948 -0.167583 -0.874433 0.775535 0.010199 -0.441929 0.000000 0.000000 0.000000 0.799325 0.002338 -0.423854 -4.701084 4.246301 -8.217698 0.000000 0.000000 0.000000 0.799325 0.002338 -0.423854 0.821171 -6.021020 -3.761133 44.049485 -39.813005 -34.639055 0.000608 -83.307134 0.000593 0.000000 0.000000 0.000000 0.799325 0.002338 -0.423854 0.506628 4.242359 2.977800 -4.368387 2.476191 83.932821 -179.999978 50.586481 179.999978 0.000000 0.000000 0.000000 
-0.049859 85.912445 -3.889122 0.000000 0.000000 0.000000 -90.692201 -2.018602 1.801777 -4.975382 20.082909 15.689076 4.002580 1.352255 1.567691 23.077526 29.708546 -25.716021 0.000000 0.000000 0.000000 -90.692201 -2.018602 1.801777 -5.903377 -19.912925 -17.564702 1.464471 -5.982825 -4.759032 34.631217 -29.595753 30.443690 0.000000 0.000000 0.000000 -90.692201 -2.018602 1.801777 0.000000 0.000000 0.000000 0.644192 -0.167744 -0.866716 0.783323 0.010057 -0.442169 0.000000 0.000000 0.000000 0.801151 0.001820 -0.423847 -4.737153 4.281858 -8.205619 0.000000 0.000000 0.000000 0.801151 0.001820 -0.423847 0.816278 -6.034783 -3.754558 44.044885 -39.812363 -34.650185 0.000411 -83.304204 0.000433 0.000000 0.000000 0.000000 0.801151 0.001820 -0.423847 0.501672 4.258664 2.981407 -4.356466 2.463915 83.921817 179.999978 50.578080 -179.999978 0.000000 0.000000 0.000000 
-0.046181 85.911804 -3.887772 0.000000 0.000000 0.000000 -90.699147 -2.014166 1.799373 -4.977759 20.083487 15.690611 4.011444 1.309619 1.567741 23.082725 29.702823 -25.725003 0.000000 0.000000 0.000000 -90.699147 -2.014166 1.799373 -5.896469 -19.912889 -17.564796 1.463180 -5.968840 -4.759243 34.642320 -29.594988 30.448276 0.000000 0.000000 0.000000 -90.699147 -2.014166 1.799373 0.000000 0.000000 0.000000 0.644380 -0.167849 -0.858353 0.790639 0.010042 -0.442317 0.000000 0.000000 0.000000 0.802097 0.001532 -0.423876 -4.784990 4.319757 -8.193455 0.000000 0.000000 0.000000 0.802097 0.001532 -0.423876 0.814095 -6.042072 -3.750280 44.046326 -39.816212 -34.649256 0.000534 -83.299430 0.000524 0.000000 0.000000 0.000000 0.802097 0.001532 -0.423876 0.495734 4.266200 2.985393 -4.348695 2.459908 83.910274 -179.999937 50.573521 179.999923 0.000000 0.000000 0.000000 
-0.042459 85.911217 -3.886215 0.000000 0.000000 0.000000 -90.704543 -2.009580 1.796913 -4.983700 20.083463 15.693200 4.026610 1.293211 1.567800 23.078618 29.695948 -25.725113 0.000000 0.000000 0.000000 -90.704543 -2.009580 1.796913 -5.888188 -19.912855 -17.565539 1.461982 -5.982255 -4.759423 34.643642 -29.593912 30.451777 0.000000 0.000000 0.000000 -90.704543 -2.009580 1.796913 0.000000 0.000000 0.000000 0.644484 -0.167896 -0.849522 0.796462 0.010102 -0.442384 0.000000 0.000000 0.000000 0.802343 0.001452 -0.423934 -4.842304 4.359303 -8.183540 0.000000 0.000000 0.000000 0.802343 0.001452 -0.423934 0.812653 -6.040045 -3.749616 44.055567 -39.827537 -34.634052 0.000639 -83.293283 0.000631 0.000000 0.000000 0.000000 0.802343 0.001452 -0.423934 0.491013 4.262262 2.990335 -4.346661 2.467088 83.898082 -179.999950 50.574088 179.999964 0.000000 0.000000 0.000000 
